<svg version="1.1" id="Layer_1" xmlns="http://www.w3.org/2000/svg" xmlns:xlink="http://www.w3.org/1999/xlink" x="0px" y="0px"
	 width="100%" viewBox="0 0 196 69" enable-background="new 0 0 196 69" xml:space="preserve">
<path fill="#FDFEFE" opacity="1.000000" stroke="none" 
	d="
M197.000000,32.000000 
	C197.000000,44.656128 197.000000,57.312256 197.000000,69.984192 
	C131.731567,69.984192 66.463142,69.984192 1.097353,69.984192 
	C1.097353,47.084408 1.097353,24.168264 1.097353,1.126060 
	C66.333168,1.126060 131.666550,1.126060 197.000000,1.126060 
	C197.000000,9.743809 197.000000,18.403242 196.531372,27.525095 
	C140.693481,27.987514 85.324196,27.987514 30.405884,27.987514 
	C30.001265,21.843409 29.807472,16.241470 29.213659,10.682261 
	C28.690748,5.786849 25.978971,3.628044 21.984613,4.986917 
	C22.977757,12.530746 23.948914,19.907560 24.920071,27.284376 
	C24.350368,27.192755 23.780666,27.101133 23.210964,27.009512 
	C21.643726,28.145746 20.076487,29.281979 17.395355,31.225775 
	C20.342321,31.882282 21.539742,32.149036 22.825430,32.435455 
	C20.806070,41.893879 18.836502,51.119087 16.835798,60.490135 
	C18.541410,61.338722 19.972651,62.050800 21.742592,62.931389 
	C22.548790,59.563332 23.324722,56.527153 23.998238,53.468426 
	C25.820248,45.193848 31.088736,40.257381 39.333969,37.948860 
	C42.756729,39.249954 42.351631,41.657402 40.485970,43.003757 
	C38.371952,44.529335 35.566074,45.396618 32.941177,45.838898 
	C29.547178,46.410763 27.113674,49.064037 28.654329,51.623661 
	C31.004597,55.528362 33.724625,59.210499 36.333897,63.055275 
	C38.138554,61.980179 39.403252,61.226761 40.904961,60.332142 
	C39.216808,57.597347 37.630096,55.026890 36.005814,52.395561 
	C43.241848,49.651073 46.300694,46.762596 45.971451,42.823429 
	C45.623234,38.657269 42.491848,37.620644 38.586998,37.099579 
	C34.850090,37.746967 31.522594,38.475777 28.027119,39.034988 
	C27.859137,38.865387 27.507072,38.542927 27.521725,38.141323 
	C28.632534,35.834354 29.611761,32.373306 30.844162,32.280678 
	C37.886444,31.751383 44.988972,32.023628 52.502243,32.023628 
	C51.102421,39.066483 49.699551,45.384800 48.624538,51.758419 
	C47.700134,57.239048 50.728848,61.171803 55.757454,61.537899 
	C53.844090,55.255646 55.794853,40.255688 59.557255,32.249763 
	C79.159119,32.249763 98.747414,32.249763 118.416222,32.249763 
	C116.812317,36.815685 109.904488,39.281818 105.706757,36.992817 
	C98.391563,33.003880 88.506119,35.975563 84.120438,43.481922 
	C80.466667,49.735565 82.691002,56.085236 90.321358,61.088612 
	C91.723274,62.007877 93.194389,62.821602 94.633568,63.684044 
	C91.206734,57.561466 85.178680,52.277596 91.438881,44.821613 
	C95.129196,40.426395 99.987411,39.215244 104.612701,41.297863 
	C100.017159,49.454758 100.017159,49.454758 106.603775,51.496624 
	C109.448227,45.900459 112.972076,40.695332 119.869995,40.032806 
	C122.381218,39.791615 125.052101,41.212814 127.650139,41.875561 
	C126.817261,44.412575 126.745621,47.890129 125.001740,49.301552 
	C120.631622,52.838554 115.504196,55.439861 110.677818,58.418175 
	C114.121445,63.820400 114.283478,64.043129 119.604866,60.171883 
	C122.636963,57.966084 125.582985,55.247051 127.607712,52.134590 
	C131.682068,45.871418 130.691574,40.990875 125.470421,36.398624 
	C124.761963,35.775505 124.036392,34.428310 124.256645,33.700035 
	C124.480965,32.958309 125.847404,32.129333 126.741859,32.096157 
	C131.138458,31.933084 135.544388,32.022106 140.803116,32.022106 
	C139.396652,36.171238 138.283691,39.454536 137.219177,42.594887 
	C142.012161,41.724430 146.656433,40.506413 151.365524,40.153728 
	C154.659576,39.907032 157.126877,41.514328 155.639389,45.671997 
	C148.429291,43.198582 144.153351,43.524334 138.249268,46.915863 
	C132.757172,50.070732 130.057007,54.306950 131.305634,57.809528 
	C132.589081,61.409756 137.380325,63.458065 143.302170,62.938091 
	C143.633865,62.908970 143.973862,62.916431 144.295898,62.844131 
	C148.637222,61.869488 152.887085,58.418850 157.435867,63.772507 
	C158.870956,56.411709 160.312332,50.423641 161.149963,44.352280 
	C162.109116,37.400063 159.603989,34.853474 152.484894,35.037640 
	C149.746109,35.108490 147.019287,35.640995 144.263199,35.965958 
	C143.796173,32.146000 145.927032,31.978256 148.520706,31.986479 
	C164.680313,32.037708 180.840210,32.004932 197.000000,32.000000 
M73.470421,45.833755 
	C72.697754,51.772701 70.270760,56.820709 65.611229,60.190048 
	C69.016083,61.566181 72.323647,62.902992 76.091156,64.425697 
	C78.093773,55.193581 79.976280,46.515186 81.927597,37.519588 
	C79.502914,37.519588 77.436630,37.519588 75.251999,37.519588 
	C74.698318,40.188980 74.195694,42.612179 73.470421,45.833755 
M171.252838,56.887749 
	C172.256775,48.791271 175.417938,41.958088 184.232986,37.483055 
	C178.160324,37.483055 173.704224,37.483055 169.134735,37.483055 
	C168.298248,41.329330 167.439285,45.219051 166.608765,49.114838 
	C165.787399,52.967632 164.994751,56.826550 164.157776,60.834743 
	C166.124847,61.835651 167.784027,62.679893 169.719513,63.664726 
	C170.270889,61.253910 170.676926,59.478539 171.252838,56.887749 
M194.143265,42.427814 
	C193.013748,40.507576 191.884232,38.587337 190.754715,36.667099 
	C190.336655,36.796242 189.918610,36.925381 189.500549,37.054520 
	C190.896027,42.727879 185.735413,43.346851 182.800156,45.714390 
	C184.055206,47.459927 185.089386,48.898266 186.830124,51.319305 
	C189.469696,48.348644 191.759171,45.771980 194.143265,42.427814 
M57.407917,61.888649 
	C57.407917,61.888649 57.560429,61.979813 57.560429,61.979813 
	C57.560429,61.979813 57.415192,62.083519 57.407917,61.888649 
z"/>
<path fill="#0AB6A1" opacity="1.000000" stroke="none" 
	d="
M28.195101,39.204590 
	C31.522594,38.475777 34.850090,37.746967 38.587490,37.264778 
	C38.997398,37.511402 38.998573,37.841805 38.998573,37.841805 
	C31.088736,40.257381 25.820248,45.193848 23.998238,53.468426 
	C23.324722,56.527153 22.548790,59.563332 21.742592,62.931389 
	C19.972651,62.050800 18.541410,61.338722 16.835798,60.490135 
	C18.836502,51.119087 20.806070,41.893879 22.825430,32.435455 
	C21.539742,32.149036 20.342321,31.882282 17.395355,31.225775 
	C20.076487,29.281979 21.643726,28.145746 23.210964,27.009512 
	C23.780666,27.101133 24.350368,27.192755 24.920071,27.284376 
	C23.948914,19.907560 22.977757,12.530746 21.984613,4.986917 
	C25.978971,3.628044 28.690748,5.786849 29.213659,10.682261 
	C29.807472,16.241470 30.001265,21.843409 30.405884,27.987514 
	C85.324196,27.987514 140.693481,27.987514 196.531372,27.993757 
	C197.000000,29.066669 197.000000,30.133339 197.000000,31.600004 
	C180.840210,32.004932 164.680313,32.037708 148.520706,31.986479 
	C145.927032,31.978256 143.796173,32.146000 144.263199,35.965958 
	C147.019287,35.640995 149.746109,35.108490 152.484894,35.037640 
	C159.603989,34.853474 162.109116,37.400063 161.149963,44.352280 
	C160.312332,50.423641 158.870956,56.411709 157.435867,63.772507 
	C152.887085,58.418850 148.637222,61.869488 144.295898,62.844131 
	C143.973862,62.916431 143.633865,62.908970 143.302170,62.938091 
	C137.380325,63.458065 132.589081,61.409756 131.305634,57.809528 
	C130.057007,54.306950 132.757172,50.070732 138.249268,46.915863 
	C144.153351,43.524334 148.429291,43.198582 155.639389,45.671997 
	C157.126877,41.514328 154.659576,39.907032 151.365524,40.153728 
	C146.656433,40.506413 142.012161,41.724430 137.219177,42.594887 
	C138.283691,39.454536 139.396652,36.171238 140.803116,32.022106 
	C135.544388,32.022106 131.138458,31.933084 126.741859,32.096157 
	C125.847404,32.129333 124.480965,32.958309 124.256645,33.700035 
	C124.036392,34.428310 124.761963,35.775505 125.470421,36.398624 
	C130.691574,40.990875 131.682068,45.871418 127.607712,52.134590 
	C125.582985,55.247051 122.636963,57.966084 119.604866,60.171883 
	C114.283478,64.043129 114.121445,63.820400 110.677818,58.418175 
	C115.504196,55.439861 120.631622,52.838554 125.001740,49.301552 
	C126.745621,47.890129 126.817261,44.412575 127.650139,41.875561 
	C125.052101,41.212814 122.381218,39.791615 119.869995,40.032806 
	C112.972076,40.695332 109.448227,45.900459 106.603775,51.496624 
	C100.017159,49.454758 100.017159,49.454758 104.612701,41.297863 
	C99.987411,39.215244 95.129196,40.426395 91.438881,44.821613 
	C85.178680,52.277596 91.206734,57.561466 94.633568,63.684044 
	C93.194389,62.821602 91.723274,62.007877 90.321358,61.088612 
	C82.691002,56.085236 80.466667,49.735565 84.120438,43.481922 
	C88.506119,35.975563 98.391563,33.003880 105.706757,36.992817 
	C109.904488,39.281818 116.812317,36.815685 118.416222,32.249763 
	C98.747414,32.249763 79.159119,32.249763 59.557255,32.249763 
	C55.794853,40.255688 53.844090,55.255646 55.757454,61.537899 
	C50.728848,61.171803 47.700134,57.239048 48.624538,51.758419 
	C49.699551,45.384800 51.102421,39.066483 52.502243,32.023628 
	C44.988972,32.023628 37.886444,31.751383 30.844162,32.280678 
	C29.611761,32.373306 28.632534,35.834354 27.408855,38.326847 
	C27.585920,39.010845 27.890511,39.107719 28.195101,39.204590 
M140.974945,50.152493 
	C138.078995,52.197762 135.183044,54.243027 131.719696,56.689022 
	C139.438553,60.710281 149.888794,57.928070 154.313629,51.553772 
	C150.368637,48.701077 146.197174,48.435658 140.974945,50.152493 
z"/>
<path fill="#0FB7A3" opacity="1.000000" stroke="none" 
	d="
M73.581741,45.434566 
	C74.195694,42.612179 74.698318,40.188980 75.251999,37.519588 
	C77.436630,37.519588 79.502914,37.519588 81.927597,37.519588 
	C79.976280,46.515186 78.093773,55.193581 76.091156,64.425697 
	C72.323647,62.902992 69.016083,61.566181 65.611229,60.190048 
	C70.270760,56.820709 72.697754,51.772701 73.581741,45.434566 
z"/>
<path fill="#0CB7A2" opacity="1.000000" stroke="none" 
	d="
M171.167908,57.295460 
	C170.676926,59.478539 170.270889,61.253910 169.719513,63.664726 
	C167.784027,62.679893 166.124847,61.835651 164.157776,60.834743 
	C164.994751,56.826550 165.787399,52.967632 166.608765,49.114838 
	C167.439285,45.219051 168.298248,41.329330 169.134735,37.483055 
	C173.704224,37.483055 178.160324,37.483055 184.232986,37.483055 
	C175.417938,41.958088 172.256775,48.791271 171.167908,57.295460 
z"/>
<path fill="#0DB7A2" opacity="1.000000" stroke="none" 
	d="
M39.333969,37.948860 
	C38.998573,37.841805 38.997398,37.511402 38.996910,37.346203 
	C42.491848,37.620644 45.623234,38.657269 45.971451,42.823429 
	C46.300694,46.762596 43.241848,49.651073 36.005814,52.395561 
	C37.630096,55.026890 39.216808,57.597347 40.904961,60.332142 
	C39.403252,61.226761 38.138554,61.980179 36.333897,63.055275 
	C33.724625,59.210499 31.004597,55.528362 28.654329,51.623661 
	C27.113674,49.064037 29.547178,46.410763 32.941177,45.838898 
	C35.566074,45.396618 38.371952,44.529335 40.485970,43.003757 
	C42.351631,41.657402 42.756729,39.249954 39.333969,37.948860 
z"/>
<path fill="#0DB7A2" opacity="1.000000" stroke="none" 
	d="
M194.095947,42.811565 
	C191.759171,45.771980 189.469696,48.348644 186.830124,51.319305 
	C185.089386,48.898266 184.055206,47.459927 182.800156,45.714390 
	C185.735413,43.346851 190.896027,42.727879 189.500549,37.054520 
	C189.918610,36.925381 190.336655,36.796242 190.754715,36.667099 
	C191.884232,38.587337 193.013748,40.507576 194.095947,42.811565 
z"/>
<path fill="#0AB6A1" opacity="1.000000" stroke="none" 
	d="
M57.411552,61.986084 
	C57.415192,62.083519 57.560429,61.979813 57.560429,61.979813 
	C57.560429,61.979813 57.407917,61.888649 57.411552,61.986084 
z"/>
<path fill="#F2FBFA" opacity="1.000000" stroke="none" 
	d="
M141.361084,50.057167 
	C146.197174,48.435658 150.368637,48.701077 154.313629,51.553772 
	C149.888794,57.928070 139.438553,60.710281 131.719696,56.689022 
	C135.183044,54.243027 138.078995,52.197762 141.361084,50.057167 
z"/>
<path fill="#FDFEFE" opacity="1.000000" stroke="none" 
	d="
M28.027119,39.034988 
	C27.890511,39.107719 27.585920,39.010845 27.394201,38.728451 
	C27.507072,38.542927 27.859137,38.865387 28.027119,39.034988 
z"/>
</svg>