<svg version="1.1" id="Layer_1" xmlns="http://www.w3.org/2000/svg" xmlns:xlink="http://www.w3.org/1999/xlink" x="0px" y="0px"
	 width="100%" viewBox="0 0 1024 1024" enable-background="new 0 0 1024 1024" xml:space="preserve">
<path fill="#fff" opacity="1.000000" stroke="none" 
	d="
M692.183960,746.705444 
	C690.951477,743.737610 689.801697,741.143616 688.848755,738.479126 
	C687.793518,735.528748 686.598328,733.549194 682.780945,733.046509 
	C677.369080,732.333801 674.660461,723.454712 677.979736,718.938049 
	C680.278992,715.809387 678.719238,714.134644 676.290405,711.496826 
	C672.301819,707.165039 663.872925,708.131287 663.151245,700.165283 
	C662.968018,698.142334 662.125793,695.623413 663.934509,694.565369 
	C668.601685,691.835266 666.570190,688.455139 665.360962,685.156555 
	C664.408264,682.557922 664.004578,679.644470 661.830505,677.623901 
	C659.516357,677.465332 658.046753,678.994873 656.395813,680.020081 
	C626.012207,698.887817 593.735840,713.175232 558.567688,720.450867 
	C516.926208,729.065552 475.851044,726.573059 435.263397,714.179321 
	C414.787170,707.926697 395.238983,699.493530 376.520813,689.173340 
	C372.716583,687.075928 370.668823,687.356628 368.665558,691.244202 
	C360.042816,707.977844 349.723236,724.037476 342.997131,741.489380 
	C336.792236,757.588989 328.582001,772.188660 319.436493,786.517151 
	C318.731842,787.621094 317.851624,788.612976 316.921692,789.828613 
	C310.954742,786.953674 305.479706,786.734497 300.417633,791.730835 
	C297.699951,794.413391 297.423065,794.132874 294.226837,791.729858 
	C290.284790,795.542053 288.924744,801.143494 285.492126,805.347473 
	C283.051147,804.156433 285.299164,802.462769 284.582458,801.263672 
	C284.483826,801.143738 284.308380,800.912109 284.297424,800.919617 
	C283.074341,801.760986 281.492798,802.367554 280.708984,803.517334 
	C272.267120,815.900818 261.755371,826.828918 255.258453,840.507629 
	C249.472275,837.336182 244.814911,833.091003 238.381622,831.248840 
	C239.184769,827.350525 236.708725,825.157959 232.633469,824.014221 
	C235.760544,815.386780 239.880249,807.582458 243.887955,799.783997 
	C269.407043,750.127441 290.307953,698.369324 313.391876,647.606140 
	C316.918854,639.849976 316.857391,639.798889 310.791321,633.399048 
	C298.143097,620.054993 285.948090,606.389587 278.930847,589.006592 
	C277.553314,585.594238 275.438385,585.110107 271.792603,585.992615 
	C237.321411,594.336487 204.968979,608.507141 172.024368,621.168396 
	C161.143158,625.350281 149.618347,628.716003 137.321838,632.092346 
	C139.822174,625.877441 135.299881,622.310730 133.705215,617.913452 
	C132.722092,615.202393 132.820694,614.066956 135.183838,612.810974 
	C137.388397,611.639282 139.543076,610.356628 141.631409,608.988098 
	C143.724350,607.616455 144.687531,605.553345 145.897324,603.312866 
	C148.315826,598.833923 149.406235,593.340332 155.762939,591.262939 
	C171.099976,586.250732 183.979279,576.405273 197.731995,568.311157 
	C202.285294,565.631348 202.352585,563.417542 198.804977,560.663696 
	C196.888229,561.402588 198.498230,563.536255 197.045746,564.723450 
	C195.534241,565.643860 193.995316,564.817749 192.703552,563.792419 
	C190.344833,561.920227 190.175995,559.439697 191.883087,557.146729 
	C194.082550,554.192200 196.712143,550.914001 200.854889,552.257202 
	C205.895203,553.891357 205.644485,558.372864 204.584518,562.992981 
	C208.710724,562.568848 212.006729,560.799194 213.420090,557.718628 
	C214.885117,554.525391 214.935654,550.738220 216.237244,547.251526 
	C217.873154,542.869263 211.612976,543.176392 210.067902,539.506226 
	C216.098175,537.054077 221.718414,534.723083 227.373672,532.480408 
	C234.650650,529.594604 241.960403,526.791565 249.247345,523.930725 
	C256.302582,521.160889 256.774109,520.431152 255.370193,513.244080 
	C252.358307,497.825317 251.136475,482.213806 251.150177,466.563721 
	C251.199493,410.239227 268.760803,359.652710 301.679962,314.164734 
	C336.806458,265.626587 383.196503,233.457703 441.020844,217.702423 
	C453.570343,214.283096 466.292999,211.835968 479.109924,209.767868 
	C484.771423,208.854385 485.798401,207.082016 484.164551,201.586716 
	C483.199463,198.340820 481.050507,195.366455 481.471344,191.662704 
	C485.846130,192.321579 491.035553,189.585876 492.912628,196.741653 
	C494.686676,183.946701 494.686676,183.946701 506.709808,188.416550 
	C507.584381,183.350082 507.584381,183.350082 512.164246,179.260742 
	C515.132446,180.127045 516.468872,183.091476 518.675659,184.970215 
	C520.353027,186.398209 521.819092,187.463089 523.814209,185.493011 
	C525.668152,183.662399 527.951111,184.530853 529.990356,184.952728 
	C532.501038,185.472168 534.824524,185.850616 537.210266,184.431946 
	C540.594299,182.419662 541.278076,186.303696 543.142273,187.465576 
	C547.963867,190.470734 553.589722,190.102661 558.954956,191.640152 
	C559.162354,193.228729 559.372864,194.841644 559.640625,196.893356 
	C563.116577,195.573227 565.408264,199.225143 568.725403,198.079346 
	C569.641235,201.414352 568.204773,204.028641 567.386780,206.642441 
	C566.179871,210.498444 567.406067,212.398788 571.181824,213.690155 
	C588.391724,219.576065 605.010010,226.900085 621.124023,235.306976 
	C674.381348,263.091888 716.146973,302.344635 742.179688,357.190826 
	C747.757690,368.942535 752.463074,381.037842 756.343018,393.455872 
	C758.399475,400.037903 759.413452,400.799866 766.024963,399.318329 
	C782.321045,395.666656 798.858337,394.001953 815.465210,392.677521 
	C820.411865,392.283020 825.284607,390.982666 830.197815,390.136047 
	C832.102722,389.807831 834.139771,388.989380 835.835205,391.395935 
	C833.262695,394.819733 833.183105,399.931305 827.859497,401.889740 
	C830.405579,403.200348 832.402405,402.723083 834.285156,402.425415 
	C852.701477,399.513855 871.075378,396.326447 889.621765,394.291504 
	C895.739929,393.620178 901.839233,392.778107 907.948975,392.028137 
	C908.606506,391.947449 909.526611,391.661011 909.902161,391.975250 
	C916.947937,397.871399 924.116089,392.179443 931.201965,392.180725 
	C933.147034,392.181061 935.109314,391.463501 937.325195,391.985321 
	C936.873352,402.285828 943.066101,393.796204 946.260254,394.932404 
	C946.302124,396.884369 946.207153,398.674377 943.907593,399.184662 
	C934.511963,401.269623 925.851929,405.584259 916.613647,408.107025 
	C914.230530,408.757812 913.204834,409.608429 913.687073,412.195465 
	C914.183655,414.859314 916.023804,414.592834 917.854736,414.532166 
	C920.078003,414.458527 922.285583,412.936920 924.594421,414.417572 
	C923.928894,415.960266 922.543884,416.017456 921.265930,416.313538 
	C904.239014,420.258240 887.354309,425.032959 870.155273,427.964783 
	C847.646423,431.801727 826.482788,439.613708 805.199707,447.271240 
	C803.658936,447.825592 801.461914,447.666107 801.989502,450.653198 
	C802.414734,453.060760 799.822937,452.822906 798.453247,453.205170 
	C790.114563,455.532562 781.768494,457.866302 773.336121,459.813477 
	C768.118469,461.018402 766.128174,463.455719 766.196960,469.125427 
	C766.394775,485.420471 767.490967,501.813538 764.296265,517.965515 
	C761.369629,532.761841 754.692871,546.323120 749.762451,560.459351 
	C742.845154,580.292542 731.258606,597.710510 720.648560,615.604797 
	C717.886047,620.263916 717.208923,624.264709 719.006775,629.607788 
	C726.827759,652.851074 735.498474,675.706299 746.875488,697.477112 
	C750.745728,704.883118 753.434265,712.556946 754.679016,721.004089 
	C755.680481,727.799988 758.663025,734.385559 761.311768,740.840759 
	C767.596863,756.158142 770.184753,772.564575 775.589111,788.122620 
	C781.828796,806.085388 790.826172,822.901550 797.653931,840.625305 
	C801.255310,849.973877 804.082275,859.531006 805.611511,869.449463 
	C805.838501,870.921509 806.258240,872.390869 805.632080,873.815796 
	C803.880493,875.422485 803.703369,872.534058 802.239929,872.799683 
	C797.608154,877.320312 794.218018,883.831238 786.343933,884.233459 
	C784.556641,884.324768 785.849060,887.150879 783.605591,887.911255 
	C780.743591,887.166687 780.136414,883.735291 777.745789,881.573181 
	C777.045959,882.669189 778.748901,884.099365 776.722961,885.384277 
	C760.684509,869.155701 752.867371,847.544922 740.524597,828.326416 
	C737.402344,831.130493 736.143555,828.871826 734.525635,826.271179 
	C724.250122,809.754456 714.695312,792.826599 705.288391,775.808838 
	C704.338440,774.090271 702.865417,772.666748 701.703613,771.056885 
	C701.033142,770.127747 699.752625,768.760803 700.021057,768.168396 
	C702.585510,762.509399 697.671753,759.454041 695.839172,755.343750 
	C694.617981,752.604980 693.511353,749.815125 692.183960,746.705444 
M602.265259,638.730225 
	C610.938538,634.077454 619.198059,628.804077 627.056396,622.853638 
	C630.462036,620.274841 631.253723,617.898010 628.985901,614.058105 
	C623.821228,605.313354 619.239990,596.245117 615.000977,587.007141 
	C603.596619,562.153931 594.797485,536.307800 585.773499,510.545715 
	C583.589478,504.310730 581.584229,503.136353 575.317810,504.647064 
	C546.864441,511.506622 518.159790,517.312317 489.942047,525.165527 
	C476.004639,529.044434 461.941132,532.471252 448.010864,536.374512 
	C440.376221,538.513733 434.137238,542.490479 431.086365,550.512573 
	C427.101318,560.991089 423.679993,571.444275 424.939667,582.943359 
	C425.313141,586.352600 424.704956,589.932007 424.143311,593.367493 
	C423.150909,599.437805 421.643463,605.375427 417.680237,610.320312 
	C413.075226,608.074890 413.054321,608.057007 409.545990,612.153625 
	C407.380035,614.682800 405.268799,617.259705 403.169312,619.844666 
	C398.343597,625.786377 398.310181,626.261230 404.820068,630.377869 
	C442.001282,653.890076 482.342316,664.669189 526.445312,660.905884 
	C553.015320,658.638611 578.051453,651.505554 602.265259,638.730225 
M357.947052,344.427246 
	C346.459045,361.623230 339.812531,381.056610 332.358551,400.098694 
	C324.396088,420.439606 321.756653,441.920013 319.331696,463.426544 
	C318.322510,472.376953 318.064514,481.352173 318.382294,490.341217 
	C318.550232,495.091980 320.700226,496.643616 325.196198,495.480621 
	C326.480896,495.148346 327.727722,494.653717 328.970337,494.177277 
	C346.369232,487.506348 363.545013,480.231659 381.408691,474.819122 
	C383.004395,474.335632 384.754944,473.939575 385.706635,472.469879 
	C389.686676,466.323486 394.699615,460.948669 398.514587,454.652771 
	C406.185547,441.993164 409.471527,428.342590 408.673767,413.658447 
	C408.230835,405.505432 410.151062,397.800507 412.750763,390.204620 
	C413.772034,387.220734 415.308075,385.301331 419.105957,385.145599 
	C425.436157,384.885986 430.669708,382.132599 433.368317,375.923767 
	C434.627747,373.026062 435.765533,370.074280 436.912872,367.129272 
	C448.024597,338.606934 457.175537,309.334564 469.719482,281.359344 
	C470.250488,280.175110 471.141815,278.904694 470.108124,277.629364 
	C468.857147,276.086029 467.205566,276.466278 465.518372,276.879944 
	C422.445190,287.440491 386.173035,308.873871 357.947052,344.427246 
M645.701416,416.995819 
	C658.209656,415.237427 670.709106,413.412354 683.231018,411.757629 
	C687.489868,411.194885 688.666138,408.699493 687.611328,405.104126 
	C686.539673,401.451630 685.026611,397.904999 683.451965,394.427429 
	C668.141907,360.615021 643.810791,333.979736 616.109009,310.056335 
	C607.542236,302.658020 598.721619,295.565094 589.560730,288.909576 
	C588.398926,288.065521 587.119873,286.919983 585.487122,287.780914 
	C584.015442,288.556915 584.152466,290.086060 584.434143,291.336212 
	C585.968140,298.145294 588.332214,304.670563 594.937073,308.100830 
	C598.648254,310.028290 600.352478,312.158936 598.298767,316.766754 
	C603.425537,317.026459 603.318176,320.421906 603.427551,323.935028 
	C603.582581,328.915497 603.583313,333.980164 604.537598,338.834381 
	C605.522461,343.843903 603.984863,348.880096 606.168396,353.949493 
	C614.460144,373.200165 622.631409,392.498444 631.243591,411.613129 
	C633.539612,416.709045 636.388733,419.017426 641.875000,417.648132 
	C642.839172,417.407501 643.842651,417.324799 645.701416,416.995819 
M502.343689,400.758118 
	C496.414032,414.686127 490.464874,428.605927 484.583923,442.554474 
	C483.970551,444.009247 482.896637,445.644806 484.339020,447.212860 
	C485.606323,448.590607 487.209839,448.594208 488.949127,448.135986 
	C510.651520,442.417999 532.358765,436.718414 554.074219,431.050140 
	C557.362549,430.191833 558.471619,428.433716 557.095093,425.182343 
	C554.114075,418.141113 551.244812,411.052582 548.258728,404.013550 
	C546.883850,400.772522 544.780762,399.420654 541.141724,401.104675 
	C538.018982,402.549866 535.287476,401.727905 533.568542,398.493439 
	C531.527588,394.652985 532.317017,387.562836 535.604797,384.634766 
	C537.948486,382.547485 538.032593,380.523224 536.885559,378.001251 
	C536.121765,376.322021 536.054443,374.468384 535.628052,372.725586 
	C533.623596,364.534546 529.850525,357.111786 524.830627,348.452454 
	C517.036865,366.587952 509.844269,383.324646 502.343689,400.758118 
M309.326447,404.728149 
	C302.813995,424.638092 299.738708,445.197784 298.481262,465.999481 
	C297.808960,477.121094 298.355988,488.315948 298.335480,499.477753 
	C298.330627,502.113495 298.848602,504.268097 302.212921,503.780243 
	C305.185120,503.349243 305.985596,501.410095 305.485535,498.700012 
	C305.364929,498.046326 305.131836,497.413574 305.007324,496.760345 
	C301.481506,478.265320 301.680176,459.849945 304.593079,441.200745 
	C310.540466,403.123322 323.814697,368.280182 347.472809,337.596222 
	C354.394897,328.618469 360.802338,319.104431 369.904846,312.214905 
	C393.373871,294.451630 418.071564,278.827820 446.837891,270.849640 
	C455.810181,268.361237 464.518829,265.027374 473.650635,263.002045 
	C480.734314,261.430939 483.039917,258.386139 482.769867,252.589218 
	C481.986938,252.589218 481.179230,252.504242 480.394104,252.601471 
	C450.509705,256.302216 422.899780,266.385101 397.365265,282.260651 
	C374.678131,296.365906 353.985504,312.736145 339.113190,335.344757 
	C325.235504,356.441376 317.632019,380.321472 309.326447,404.728149 
M604.834167,650.347595 
	C579.612671,662.622375 553.368408,670.841675 525.110291,672.719177 
	C493.004028,674.852295 462.024292,670.678772 432.125458,658.866028 
	C420.485413,654.267212 409.694000,647.909241 398.801636,641.792297 
	C396.848938,640.695679 394.712219,638.966370 392.735382,641.878967 
	C390.810089,644.715698 391.096161,647.201355 394.006287,649.150574 
	C395.795502,650.348999 397.588318,651.612000 399.540802,652.485535 
	C413.520905,658.739807 427.459961,665.097046 441.571106,671.044250 
	C460.188232,678.890503 479.671021,682.440369 499.905060,682.801270 
	C532.494812,683.382507 563.702515,676.818115 594.217773,665.996338 
	C602.415161,663.089233 609.305542,658.313477 615.349487,652.192688 
	C616.473328,651.054626 617.948120,649.971252 617.166138,647.714355 
	C612.817444,645.909180 609.321228,648.726135 604.834167,650.347595 
M702.120300,489.824341 
	C702.747253,487.584106 703.375549,485.344299 704.000732,483.103577 
	C705.557800,477.523102 702.580627,473.525482 696.939148,474.431549 
	C686.286133,476.142456 675.705200,478.311340 665.111633,480.378601 
	C661.804626,481.023987 660.749023,483.031006 662.024963,486.270386 
	C663.729858,490.598633 665.110046,495.065430 667.000366,499.307526 
	C669.839111,505.677948 674.451294,509.688995 681.892273,509.941895 
	C685.438477,510.062408 687.597107,511.757446 686.979187,516.045471 
	C686.387451,520.152161 687.269043,524.206726 689.832764,529.224365 
	C697.959045,516.903931 698.931641,503.431915 702.120300,489.824341 
M476.387543,715.854065 
	C481.673981,716.462097 486.946320,717.393188 492.249207,717.624329 
	C521.192017,718.885925 549.757507,716.544250 577.793945,708.726868 
	C602.401550,701.865540 625.343750,691.523499 646.378845,677.017761 
	C647.873413,675.987122 650.711731,674.856384 649.109375,672.541931 
	C647.416626,670.097107 645.671143,672.716431 644.133301,673.659485 
	C642.718445,674.526978 641.484131,675.685974 640.082214,676.578186 
	C633.644653,680.675415 627.846313,686.041260 620.427673,688.229553 
	C615.994995,689.537109 611.219360,690.160034 607.881836,693.391968 
	C605.037170,696.146606 601.766235,697.102051 598.250671,697.851562 
	C593.993286,698.759338 589.964233,700.177429 586.009949,702.023315 
	C580.291321,704.692932 574.199646,706.825928 568.021362,707.531555 
	C560.578247,708.381653 553.191101,709.648071 545.941101,711.173157 
	C521.939392,716.222046 498.051239,714.279297 474.072723,711.479309 
	C456.354919,709.410461 439.217194,705.102112 422.604370,698.719788 
	C410.980530,694.254272 399.353394,689.791260 388.687714,683.148132 
	C385.367737,681.080261 382.198151,678.071777 377.428528,678.273804 
	C377.923065,680.744385 379.662781,681.553650 381.181854,682.430847 
	C386.803345,685.677063 392.395721,688.988464 398.145874,691.994507 
	C422.449860,704.700073 448.302399,712.434814 476.387543,715.854065 
M395.981781,674.586792 
	C391.172729,672.491760 387.137390,668.654236 381.245819,667.039551 
	C382.414886,670.879028 382.347504,671.002258 384.472565,672.164185 
	C402.833252,682.203247 420.874176,692.700928 441.730316,697.404541 
	C463.799805,702.381653 485.446960,708.400818 508.606628,706.175720 
	C523.954956,704.701111 539.780273,706.637207 554.845459,703.145081 
	C584.111145,696.361267 612.552307,686.968933 637.776794,669.867310 
	C639.198486,668.903503 641.222351,668.362061 641.183350,665.766968 
	C637.732117,664.468201 635.601562,667.160156 633.283142,668.572144 
	C594.352478,692.283142 552.202515,703.912292 506.551147,703.500000 
	C467.444244,703.146790 430.865906,693.717468 395.981781,674.586792 
M390.985596,656.562622 
	C407.733856,667.776184 425.924225,675.902039 445.189301,681.650269 
	C475.112823,690.578796 505.650940,692.916565 536.626282,689.560547 
	C560.156067,687.011230 582.643005,680.699036 603.786011,669.913696 
	C605.545410,669.016235 607.831848,668.408997 607.882202,664.920898 
	C532.304016,698.626526 459.251862,694.992615 388.798279,651.727478 
	C387.764709,654.489075 389.536469,655.072632 390.985596,656.562622 
M433.384613,242.711212 
	C450.590790,236.726654 468.567627,233.765259 486.517242,230.697052 
	C486.266296,229.842575 486.015320,228.988083 485.764343,228.133591 
	C445.766602,230.982742 409.610870,245.016098 376.175140,266.999115 
	C353.685211,281.785583 324.646820,310.223114 324.024139,318.456482 
	C326.624359,317.065979 328.096283,314.828613 329.725433,312.801514 
	C337.472443,303.162170 346.100037,294.383392 355.574341,286.451660 
	C378.571014,267.199249 404.642303,253.363327 433.384613,242.711212 
M351.005524,308.505066 
	C346.782593,312.876465 341.977783,316.834900 339.725220,323.440796 
	C342.197235,322.852844 342.909119,321.414429 343.848145,320.317780 
	C369.539398,290.313904 402.956238,272.256195 439.173767,258.459839 
	C452.468658,253.395401 466.426056,251.010544 480.181732,247.785889 
	C481.955811,247.370026 484.080170,247.419540 485.019653,245.279770 
	C483.345215,243.855011 481.932251,244.575485 480.501160,244.915756 
	C475.808929,246.031418 471.124725,247.190704 466.405670,248.181854 
	C450.780640,251.463593 435.084961,254.584732 420.289093,260.771271 
	C394.104065,271.719879 372.121704,288.890839 351.005524,308.505066 
M437.378021,229.728302 
	C448.574890,226.260193 460.393158,225.560135 471.581238,221.968536 
	C475.786835,220.618469 480.255005,220.086288 485.646912,218.964066 
	C462.926086,210.590561 363.559021,250.998581 357.071960,270.363892 
	C359.207703,270.841980 360.499054,269.200317 361.873291,268.233643 
	C374.775635,259.157684 388.292114,251.142151 402.121277,243.545639 
	C413.113586,237.507431 425.266083,234.811600 437.378021,229.728302 
M698.652527,558.842773 
	C702.819702,552.994263 706.139343,546.709900 708.824280,540.037476 
	C715.750549,522.824951 719.746887,504.873657 722.539978,486.615448 
	C723.116150,482.849060 723.405151,479.022125 723.549622,475.212616 
	C723.634705,472.968292 722.387451,471.325165 719.921021,471.374969 
	C718.097351,471.411804 716.237366,472.421051 716.911316,474.395203 
	C718.311951,478.498199 716.948853,482.300323 716.284241,486.157593 
	C712.507080,508.079773 709.234375,530.142517 699.013672,550.346252 
	C697.824341,552.697388 697.042603,555.286865 696.341248,557.839783 
	C695.970398,559.189758 696.094360,560.811157 698.652527,558.842773 
M629.065674,295.299469 
	C615.641113,282.090973 602.036926,269.121063 584.239014,261.760193 
	C582.472473,261.029572 580.476746,259.178711 578.806763,261.109894 
	C577.097229,263.086700 577.976257,265.560577 579.336548,267.578430 
	C581.783875,271.208649 585.630310,272.933441 589.465271,274.560364 
	C602.522583,280.099854 615.078308,286.535065 626.586670,294.900665 
	C627.287048,295.409821 627.893311,296.585480 629.065674,295.299469 
M637.376648,292.112671 
	C635.373169,290.162689 633.122192,288.848541 629.876770,289.485107 
	C652.783630,309.203400 675.854309,328.654022 691.635132,355.062256 
	C690.053833,347.926056 686.575623,341.989349 682.555298,336.336060 
	C670.287537,319.085632 655.563293,304.341370 637.376648,292.112671 
M588.413147,256.095032 
	C583.316406,254.096527 583.316406,254.096527 579.683533,255.498871 
	C590.380859,260.703735 600.207886,266.461243 611.064331,270.156342 
	C605.097107,263.323212 597.078491,259.898102 588.413147,256.095032 
M593.316589,242.231857 
	C589.942261,243.711563 593.229980,244.346237 593.809753,244.658386 
	C601.424744,248.758484 609.098450,252.750671 616.788025,256.710358 
	C617.891541,257.278595 619.127319,258.217834 621.290527,255.973206 
	C613.441711,248.653137 603.881714,245.146286 593.316589,242.231857 
M584.284119,230.570374 
	C595.196777,235.578827 606.201965,240.353714 618.508728,244.571701 
	C610.844849,237.257111 589.794189,228.462540 581.439941,228.816925 
	C582.349365,229.399033 583.029968,229.834641 584.284119,230.570374 
M322.205170,300.703430 
	C318.665070,304.757111 315.113281,308.803009 313.878021,314.496307 
	C320.144653,307.226044 326.411255,299.955780 332.677856,292.685486 
	C332.335083,292.379364 331.992310,292.073242 331.649536,291.767120 
	C328.257202,294.123566 325.537109,297.230591 322.205170,300.703430 
M296.915161,439.648010 
	C297.288086,437.515656 297.569305,435.361908 298.059570,433.256897 
	C298.556305,431.124054 298.919434,429.042053 298.078796,426.921722 
	C295.699219,436.401825 293.873444,445.909210 294.917542,455.764862 
	C295.553101,450.684662 296.188660,445.604431 296.915161,439.648010 
M698.516663,567.271851 
	C699.901001,570.057922 700.995117,567.878662 701.509277,566.855957 
	C703.165405,563.562012 704.869080,560.233704 705.496155,555.311157 
	C702.011841,559.278931 700.672913,563.180786 698.516663,567.271851 
M493.520569,412.321106 
	C494.715637,408.334595 497.218292,404.770935 497.136230,400.318970 
	C494.892456,404.357758 492.969666,408.553864 491.620544,412.926971 
	C491.273682,414.051361 492.635315,413.316162 493.520569,412.321106 
M538.912170,495.297577 
	C535.568298,496.338409 531.793213,496.098450 527.676392,498.715515 
	C533.360413,499.098602 537.105530,497.064301 540.972534,495.400360 
	C540.495972,495.350311 540.019470,495.300262 538.912170,495.297577 
M345.402283,566.318054 
	C346.780212,568.505310 348.362000,568.300232 349.562195,566.337402 
	C350.290955,565.145447 349.926666,563.596497 348.380676,563.101562 
	C346.255554,562.421143 345.340698,563.601257 345.402283,566.318054 
M768.849915,869.001282 
	C769.224182,869.517944 769.598389,870.034607 769.972656,870.551270 
	C768.797424,866.020630 766.617371,862.053406 763.230164,858.713867 
	C764.995605,861.971130 766.761108,865.228455 768.849915,869.001282 
M572.262756,227.947250 
	C571.615662,226.927643 570.928711,225.900375 569.513672,226.724167 
	C568.739868,227.174667 568.364441,227.956787 568.698914,228.845520 
	C569.251892,230.314743 570.511658,230.767899 571.911804,230.603607 
	C573.464783,230.421387 573.121887,229.418289 572.262756,227.947250 
z"/>
<path fill="#000000" opacity="1.000000" stroke="none" 
	d="
M378.921021,718.969727 
	C379.203369,720.101379 379.424530,720.921875 379.384949,721.729492 
	C379.111969,727.299133 376.104248,730.978149 372.115784,730.700134 
	C368.357574,730.438171 366.041687,725.837585 366.911530,720.406067 
	C367.275726,718.131775 368.224365,716.286194 370.542572,715.504639 
	C374.120544,714.298340 376.573303,716.126648 378.921021,718.969727 
z"/>
<path fill="#000000" opacity="1.000000" stroke="none" 
	d="
M608.723389,190.223969 
	C605.755798,190.370316 603.621277,189.491745 602.780762,186.956177 
	C601.700500,183.697586 601.962280,180.533279 605.379822,178.746185 
	C607.952026,177.401230 610.028503,178.697098 611.084473,181.091370 
	C612.577942,184.477249 614.268433,188.136414 608.723389,190.223969 
z"/>
<path fill="#000000" opacity="1.000000" stroke="none" 
	d="
M275.303894,823.792236 
	C281.248657,824.316711 283.379150,827.181580 280.892609,830.829895 
	C279.345245,833.100220 277.335419,834.856079 274.280121,834.534607 
	C272.637970,834.361877 271.257446,833.480774 271.069092,831.853577 
	C270.678833,828.482117 271.848999,825.676208 275.303894,823.792236 
z"/>
<path fill="#000000" opacity="1.000000" stroke="none" 
	d="
M760.433838,351.559937 
	C764.131165,348.090149 766.430298,348.242706 767.176514,351.726990 
	C767.600769,353.707855 767.527466,355.754303 765.901733,357.313263 
	C764.989807,358.187744 763.765747,358.515900 762.686768,357.845184 
	C760.512390,356.493591 759.511963,354.526886 760.433838,351.559937 
z"/>
<path fill="#000000" opacity="1.000000" stroke="none" 
	d="
M165.231598,569.076233 
	C162.479568,567.809265 162.298065,566.076416 163.713364,564.096252 
	C164.722000,562.685059 166.084778,561.647766 167.948486,562.182800 
	C169.592026,562.654663 170.350052,563.974854 170.183945,565.629395 
	C169.913696,568.321289 168.076248,569.169128 165.231598,569.076233 
z"/>
<path fill="#000000" opacity="1.000000" stroke="none" 
	d="
M566.899597,164.539017 
	C568.172852,166.510239 568.668518,168.261566 566.766785,169.625336 
	C565.603149,170.459839 564.216248,170.314423 563.117676,169.296066 
	C562.050232,168.306595 561.707397,167.023224 562.297607,165.679825 
	C563.192749,163.642715 564.639404,162.992142 566.899597,164.539017 
z"/>
<path fill="#000000" opacity="1.000000" stroke="none" 
	d="
M699.334045,231.655212 
	C698.980530,229.416183 699.701782,227.970444 701.614014,227.660950 
	C703.179382,227.407623 703.893005,228.734833 704.315186,230.030640 
	C704.700623,231.214020 704.467346,232.421646 703.481323,233.167740 
	C701.727112,234.495056 700.447144,233.618042 699.334045,231.655212 
z"/>
<path fill="#000000" opacity="1.000000" stroke="none" 
	d="
M304.633911,799.281494 
	C307.255615,798.274048 308.965454,798.728333 308.645142,801.570312 
	C308.455292,803.254639 307.249023,804.990662 305.368408,804.381775 
	C302.785980,803.545593 303.544922,801.399170 304.633911,799.281494 
z"/>
<path fill="#000000" opacity="1.000000" stroke="none" 
	d="
M453.001160,550.868774 
	C455.256378,551.116455 456.497955,552.143799 456.641602,554.044250 
	C456.777954,555.848328 455.979004,557.334290 454.223877,558.007019 
	C452.803741,558.551331 451.461914,558.124878 450.909027,556.670593 
	C450.046356,554.401428 449.497192,552.064270 453.001160,550.868774 
z"/>
<path fill="#000000" opacity="1.000000" stroke="none" 
	d="
M647.639709,377.994751 
	C646.708862,375.717926 646.469421,373.743622 646.927673,371.766479 
	C647.504456,369.278168 649.047424,367.660706 651.690674,367.399109 
	C654.584290,367.112732 658.572632,371.164703 659.533264,375.292145 
	C660.279114,378.496796 658.561035,380.427063 655.910461,381.503479 
	C652.368103,382.942047 649.407227,382.226349 647.639709,377.994751 
z"/>
</svg>